<svg width="100" height="100" viewBox="0 0 100 100" fill="none" xmlns="http://www.w3.org/2000/svg">
<rect width="100" height="100" rx="50" fill="#F3F7FB"/>
<path d="M35.275 29.1494H57.2252C59.9791 29.1494 62.3085 29.734 64.0728 30.9531C65.7198 32.0911 66.9035 33.8026 67.4752 36.1826L67.5816 36.668L67.5836 36.6787C67.8013 37.622 67.9 38.6445 67.9 39.7998V52.6748C67.9 56.458 66.8208 59.1027 64.9869 60.8057C63.1482 62.513 60.496 63.3252 57.2496 63.3252H35.275C34.1702 63.3252 33.1216 63.227 32.1519 63.0088L32.1412 63.0059L32.1305 63.0039L31.6861 62.9199C31.3931 62.8555 31.1063 62.7758 30.8287 62.6865L30.4195 62.5459C28.6111 61.8701 27.1713 60.7548 26.1793 59.1475C25.1844 57.5352 24.6246 55.4032 24.6246 52.6748V39.7998C24.6246 36.0167 25.7039 33.3719 27.5377 31.6689C29.3764 29.9616 32.0286 29.1494 35.275 29.1494Z" fill="white" stroke="#CDD6E4" stroke-width="0.7"/>
<path opacity="0.6" d="M46.2498 39.7495C49.8444 39.7495 52.7496 42.6549 52.7498 46.2495C52.7498 49.8443 49.8446 52.7495 46.2498 52.7495C42.6551 52.7494 39.7498 49.8442 39.7498 46.2495C39.75 42.655 42.6552 39.7496 46.2498 39.7495ZM31.95 40.7251C32.9196 40.7251 33.7252 41.5299 33.7254 42.4995V49.9995C33.7254 50.9693 32.9198 51.7749 31.95 51.7749C30.9802 51.7749 30.1746 50.9693 30.1746 49.9995V42.4995C30.1748 41.5299 30.9803 40.7251 31.95 40.7251ZM60.5252 40.7251C61.4947 40.7252 62.2994 41.53 62.2996 42.4995V49.9995C62.2996 50.9692 61.4949 51.7748 60.5252 51.7749C59.5554 51.7749 58.7498 50.9693 58.7498 49.9995V42.4995C58.75 41.5299 59.5555 40.7251 60.5252 40.7251Z" fill="#B0BCCD" stroke="#CDD6E4" stroke-width="0.2"/>
<path d="M72.524 39.4565C72.6187 39.4085 72.7232 39.4117 72.8209 39.5151C74.4439 41.2336 75.4 43.764 75.4 47.3003V60.1753C75.4 63.9586 74.3203 66.6096 72.483 68.3188C70.6412 70.0322 67.9835 70.8501 64.7252 70.8501H42.775C41.0486 70.8501 39.5065 70.6131 38.1646 70.145L37.899 70.0483L37.8941 70.0464L37.4762 69.8833C36.6555 69.5406 35.923 69.0931 35.2975 68.5522L34.9937 68.2739L34.9898 68.271L34.9273 68.1929C34.8831 68.1153 34.8902 68.0376 34.9234 67.9702C34.9728 67.8704 35.0933 67.7749 35.275 67.7749H57.2252C61.9194 67.7749 65.7043 66.3784 68.316 63.77C70.9277 61.1615 72.3247 57.3826 72.3248 52.7007V39.8003C72.3248 39.6351 72.4172 39.5108 72.524 39.4565Z" fill="white" stroke="#CDD6E4" stroke-width="0.7"/>
</svg>
