<svg width="100" height="100" viewBox="0 0 100 100" fill="none" xmlns="http://www.w3.org/2000/svg">
<rect width="100" height="100" rx="50" fill="#F3F7FB"/>
<path d="M46.8682 27.3574C56.9118 27.3577 65.084 35.5306 65.084 45.5742C65.0839 49.8729 63.5715 54.0021 60.8105 57.2842L60.6074 57.5244L60.8252 57.752L71.7695 69.1348C72.5118 69.9068 72.5355 71.1092 71.8574 71.9092L71.7129 72.0635C71.3256 72.4363 70.8158 72.6415 70.2773 72.6416C69.7082 72.6416 69.1792 72.4161 68.7842 72.0059H68.7832L57.7568 60.5371L57.5488 60.3213L57.3027 60.4941C54.2308 62.6528 50.639 63.79 46.8682 63.79C36.8245 63.79 28.6516 55.6178 28.6514 45.5742C28.6514 35.5304 36.8244 27.3574 46.8682 27.3574Z" fill="white" stroke="#CDD6E4" stroke-width="0.7"/>
<path opacity="0.6" d="M46.8677 31.9507C54.3793 31.9507 60.4907 38.0621 60.4908 45.5737C60.4908 53.0853 54.3793 59.1968 46.8677 59.1968C39.3561 59.1968 33.2447 53.0853 33.2447 45.5737C33.2447 38.0621 39.3561 31.9507 46.8677 31.9507Z" fill="#B0BCCD" stroke="#CDD6E4" stroke-width="0.2"/>
</svg>
