<svg width="100" height="100" viewBox="0 0 100 100" fill="none" xmlns="http://www.w3.org/2000/svg">
<rect width="100" height="100" rx="50" fill="#F3F7FB"/>
<path d="M49.0087 62.8389L37.661 51.4912H27.3485L29.3719 47.4551C31.0599 44.0829 33.4351 41.0488 37.5165 41.0488H43.6395L43.744 40.9111C50.8697 31.5835 61.4571 26.1915 69.2909 26.1914H74.3085V31.209C74.3084 39.039 68.9163 49.6302 59.5887 56.7559L59.451 56.8604V62.9834C59.451 66.8098 56.7843 69.1398 53.6727 70.8037L53.0448 71.1279L49.0087 73.1475V62.8389Z" fill="white" stroke="#CDD6E4" stroke-width="0.7"/>
<path opacity="0.6" d="M41.0887 64.8398L39.3026 66.627C37.8319 68.0976 35.531 69.0211 33.5858 69.5762C32.6153 69.8531 31.7367 70.0373 31.1014 70.1523C30.7842 70.2098 30.5276 70.2496 30.3504 70.2754C30.2955 70.2834 30.2479 70.2896 30.2088 70.2949C30.2161 70.2528 30.2253 70.201 30.2362 70.1406C30.2695 69.9558 30.3195 69.6884 30.3885 69.3594C30.5268 68.7003 30.7393 67.7934 31.035 66.8037C31.5909 64.9427 32.437 62.805 33.6297 61.4561L33.8729 61.1973L35.659 59.4102L41.0887 64.8398Z" fill="#B0BCCD" stroke="#CDD6E4" stroke-width="0.2"/>
<path opacity="0.6" d="M59.8009 37.084C60.7593 37.084 61.6788 37.465 62.3566 38.1426C63.0343 38.8203 63.4151 39.7398 63.4152 40.6982C63.4152 41.6568 63.0344 42.5761 62.3566 43.2539C61.6788 43.9317 60.7595 44.3125 59.8009 44.3125C58.8425 44.3124 57.923 43.9316 57.2453 43.2539C56.5677 42.5761 56.1867 41.6566 56.1867 40.6982C56.1868 39.7398 56.5676 38.8203 57.2453 38.1426C57.8807 37.5071 58.7289 37.1331 59.6222 37.0889L59.8009 37.084Z" fill="#B0BCCD" stroke="#CDD6E4" stroke-width="0.2"/>
</svg>
